<?xml version="1.0" encoding="UTF-8"?><svg id="Layer_1" xmlns="http://www.w3.org/2000/svg" viewBox="0 0 256 256"><defs><style>.cls-1{fill:#fff;}.cls-2{fill:#63c;}.cls-3{fill:none;stroke:#fff;stroke-linejoin:round;stroke-width:10px;}</style></defs><rect class="cls-2" width="256" height="256"/><g><path class="cls-1" d="m56.1,191.03c1.02,1.78,1.6,3.84,1.6,6.03s-.58,4.25-1.6,6.03c-2.1,3.66-6.04,6.13-10.57,6.13h-13.24c-4.53,0-8.48-2.47-10.58-6.13-.97-1.69-1.55-3.64-1.6-5.72h6.14c.18,3.18,2.82,5.72,6.05,5.72h13.24c3.33,0,6.03-2.71,6.03-6.03s-2.71-6.03-6.03-6.03h-13.26c-3.42,0-6.52-1.42-8.73-3.69-.71-.73-1.33-1.55-1.84-2.44-1.02-1.78-1.6-3.84-1.6-6.03s.58-4.26,1.6-6.03c2.1-3.66,6.04-6.13,10.57-6.13h12.93c.11,0,.21,0,.32,0s.21,0,.32,0c4.39.11,8.21,2.55,10.26,6.12,0,0,0,0,0,0,.97,1.69,1.54,3.64,1.6,5.71h-6.14c-.17-3.11-2.7-5.6-5.82-5.71h-13.47c-3.33,0-6.03,2.71-6.03,6.03,0,3.12,2.39,5.7,5.43,6,.2,0,.41-.02.62-.02.36,0,.71.02,1.06.05h12.19c4.52,0,8.47,2.47,10.57,6.13Z"/><path class="cls-1" d="m98.84,194.49h6.6c-2.78,8.55-10.81,14.74-20.29,14.74-10.72,0-19.59-7.91-21.1-18.21-.15-1.02-.23-2.06-.23-3.13s.07-2.02.21-3c1.46-10.36,10.36-18.33,21.12-18.33,9.72,0,17.92,6.5,20.49,15.4h-6.5c-2.32-5.44-7.72-9.26-13.99-9.26-7.35,0-13.5,5.25-14.9,12.2-.2.97-.3,1.98-.3,3s.11,2.12.32,3.13c1.45,6.89,7.57,12.07,14.88,12.07,6.02,0,11.24-3.52,13.69-8.61Z"/><path class="cls-1" d="m151.46,166.72v6.13h-37.59v-6.13h37.59Zm-31.46,36.38h31.46v6.13h-37.59v-33.31h6.13v7.45h27.34v6.13h-27.34v13.6Z"/><path class="cls-1" d="m191.39,166.7v42.33l-6.13-6.13-21.48-21.48h0s-6.13-6.13-6.13-6.13v-8.67l27.61,27.61v-27.53h6.13Zm-33.75,12.92l6.13,6.13v23.47h-6.13v-29.6Z"/><path class="cls-1" d="m235.81,166.72v6.13h-37.59v-6.13h37.59Zm-31.46,36.38h31.46v6.13h-37.59v-33.31h6.13v7.45h27.34v6.13h-27.34v13.6Z"/></g><path class="cls-3" d="m96.72,140.07h-51.66c-4.41,0-6.66-5.3-3.6-8.47L116.06,54.35c6.25-6.47,17.19-2.05,17.19,6.95v78.77l64.99-43.14c15.79-10.48,14.63-34.02-2.1-42.91l-36.39-19.32c-3.33-1.77-7.34.65-7.34,4.42v62.91"/></svg>